# xmcd
#
# Track frame offsets:
#	150
#	19569
#	37382
#	54587
#	72590
#	89405
#	106512
#	119777
#	135782
#	152237
#	168434
#	187857
#	205667
#	222875
#	240877
#	257695
#	274800
#	288065
#	304070
#	320522
#
# Disc length: 4489
#
# Revision: 1
# Processed by: cddbd v1.5.1PL0 Copyright (c) Steve Scherf et al.
# Submitted via: audiograbber 1.82.02
# Normalized: r0:DSETVAR1
#
DISCID=16118714
DTITLE=Various Artist - THC0010
DYEAR=2000
DGENRE=Country
TTITLE0=Gilman, Billy (GV) - One Voice
TTITLE1=Vassar, Phil (GV) - Just Another Day In Paradise
TTITLE2=Paisley, Brad (GV) - We Danced
TTITLE3=Wynonna (GV) - Going Nowhere
TTITLE4=Worley, Darryl (GV) - When You Need My Love
TTITLE5=Twain, Shania (GV) - I'm Holdin' On To Love
TTITLE6=Tippin, Aaron (GV) - Kiss This
TTITLE7=Middleman, Georgia (GV) - No Place Like Home
TTITLE8=Gentry, Montgomery (GV) - Self Made Man
TTITLE9=Loveless, Patty (GV) - That's The Kind Of Mood I'm In
TTITLE10=Gilman, Billy - One Voice
TTITLE11=Vassar, Phil - Just Another Day In Paradise
TTITLE12=Paisley, Brad - We Danced
TTITLE13=Wynonna - Going Nowhere
TTITLE14=Worley, Darryl - When You Need My Love
TTITLE15=Twain, Shania - I'm Holdin' On To Love
TTITLE16=Tippin, Aaron - Kiss This
TTITLE17=Middleman, Georgia - No Place Like Home
TTITLE18=Gentry, Montgomery - Self Made Man
TTITLE19=Loveless, Patty - That's The Kind Of Mood I'm In
EXTD=
EXTT0=
EXTT1=
EXTT2=
EXTT3=
EXTT4=
EXTT5=
EXTT6=
EXTT7=
EXTT8=
EXTT9=
EXTT10=
EXTT11=
EXTT12=
EXTT13=
EXTT14=
EXTT15=
EXTT16=
EXTT17=
EXTT18=
EXTT19=
PLAYORDER=
